<?xml version="1.0" ?><svg data-name="Layer 1" id="Layer_1" viewBox="0 0 66 66" xmlns="http://www.w3.org/2000/svg"><title/><path d="M42.5,26.7a1,1,0,0,0-.79-.06,1,1,0,0,0-.59.53c-.53,1.19-1.15,1.89-1.75,2a2.34,2.34,0,0,1-1.85-1.06c-.77-.9-.53-2.79-.13-5.91.1-.8.21-1.68.32-2.65.63-5.69-5.34-9.54-5.59-9.7a1,1,0,0,0-1.52,1c.95,5.13-2.44,8.36-6.72,12.44-3.54,3.38-7.55,7.21-9.59,12.89-4.62,12.88,10.45,20,10.6,20.06a1.06,1.06,0,0,0,.42.09,1,1,0,0,0,.62-1.78,10.31,10.31,0,0,1-3.57-7.14c0-2,1.31-3.85,2.47-5.12.09,1.5.44,3.3,1.5,4.26a2.84,2.84,0,0,0,2.61.64,4.55,4.55,0,0,0,3.6-2.79c.67-1.9-.14-4.38-2.28-7a4.08,4.08,0,0,1-1.13-3.1,3.26,3.26,0,0,1,.44-1.25c.88,1.7,2.77,2.7,4.74,3.74,2.52,1.33,5.38,2.84,7.23,6.11,3.5,6.15-3.76,11.4-4.07,11.62a1,1,0,0,0,.78,1.79c10.21-2.16,14.91-10.49,14.29-17.6C51.92,31.79,42.89,26.9,42.5,26.7ZM41.88,53c2.23-2.86,3.79-6.9,1.41-11.1-2.15-3.79-5.42-5.51-8-6.9S31.13,32.76,31.06,31a1,1,0,0,0-1-1,1,1,0,0,0-.58.19A6.13,6.13,0,0,0,27.15,34a6,6,0,0,0,1.57,4.65c1.65,2,2.36,3.87,1.93,5.07a2.68,2.68,0,0,1-2.13,1.49.85.85,0,0,1-.84-.16c-.85-.76-1-3.4-.81-5a1,1,0,0,0-.5-1,1,1,0,0,0-1.1.07c-.2.16-5,3.88-4.91,8.32a10.88,10.88,0,0,0,.95,4.16c-3.57-2.86-7.62-7.86-5.13-14.77,1.88-5.23,5.7-8.88,9.08-12.11,3.76-3.58,7.33-7,7.49-11.85,1.46,1.38,3.27,3.68,3,6.41-.11,1-.22,1.83-.32,2.62-.46,3.67-.74,5.88.59,7.45a4.14,4.14,0,0,0,3.66,1.75A4,4,0,0,0,42.44,29c2.17,1.34,7.69,5.19,8.1,9.91A14.47,14.47,0,0,1,41.88,53Z"/><path d="M49.77,2A136.38,136.38,0,0,0,16.23,2,16.33,16.33,0,0,0,2,16.23,136.38,136.38,0,0,0,2,49.77,16.33,16.33,0,0,0,16.23,64,136.29,136.29,0,0,0,33,65a136.29,136.29,0,0,0,16.77-1A16.33,16.33,0,0,0,64,49.77a136.38,136.38,0,0,0,0-33.54A16.33,16.33,0,0,0,49.77,2ZM62,49.52A14.31,14.31,0,0,1,49.52,62a133.32,133.32,0,0,1-33,0A14.31,14.31,0,0,1,4,49.52a133.32,133.32,0,0,1,0-33A14.31,14.31,0,0,1,16.48,4a133,133,0,0,1,33,0A14.31,14.31,0,0,1,62,16.48,133.32,133.32,0,0,1,62,49.52Z"/></svg>